HIERARCHY
ROOT root     
{
	OFFSET 0.0000 0.0000 0.0000
	CHANNELS 6 Xposition Yposition Zposition Zrotation Yrotation Xrotation
	JOINT pelvis   
	{
		OFFSET 0.0000 0.0000 0.0000
		CHANNELS 3 Zrotation Yrotation Xrotation
		JOINT thorax   
		{
			OFFSET 0.0000 23.0750 -5.0000
			CHANNELS 3 Zrotation Yrotation Xrotation
			JOINT rclavicle
			{
				OFFSET 0.0000 28.0009 0.0000
				CHANNELS 3 Zrotation Yrotation Xrotation
				JOINT rhumerus 
				{
					OFFSET -18.5725 5.5939 0.0000
					CHANNELS 3 Zrotation Yrotation Xrotation
					JOINT rradius  
					{
						OFFSET -24.8459 0.0000 0.0000
						CHANNELS 3 Zrotation Yrotation Xrotation
						JOINT rhand    
						{
							OFFSET -24.5477 0.0000 0.0000
							CHANNELS 3 Zrotation Yrotation Xrotation
							End Site
							{
								OFFSET -8.1826 0.0000 0.0000
							}
						}
					}
				}
			}
			JOINT lclavicle
			{
				OFFSET 0.0000 28.0009 0.0000
				CHANNELS 3 Zrotation Yrotation Xrotation
				JOINT lhumerus 
				{
					OFFSET 18.5725 5.5939 0.0000
					CHANNELS 3 Zrotation Yrotation Xrotation
					JOINT lradius  
					{
						OFFSET 24.8459 0.0000 0.0000
						CHANNELS 3 Zrotation Yrotation Xrotation
						JOINT lhand    
						{
							OFFSET 24.5477 0.0000 0.0000
							CHANNELS 3 Zrotation Yrotation Xrotation
							End Site
							{
								OFFSET 8.1826 0.0000 0.0000
							}
						}
					}
				}
			}
			JOINT head     
			{
				OFFSET 0.0000 35.2030 0.0000
				CHANNELS 3 Zrotation Yrotation Xrotation
				End Site
				{
					OFFSET 0.0000 11.7343 0.0000
				}
			}
		}
		JOINT rfemur   
		{
			OFFSET -8.2817 0.0000 0.0000
			CHANNELS 3 Zrotation Yrotation Xrotation
			JOINT rtibia   
			{
				OFFSET 0.0000 -43.3627 0.0000
				CHANNELS 3 Zrotation Yrotation Xrotation
				JOINT rfoot    
				{
					OFFSET 0.0000 -38.2947 0.0000
					CHANNELS 3 Zrotation Yrotation Xrotation
					JOINT rtoes    
					{
						OFFSET 0.0000 0.0000 16.6054
						CHANNELS 3 Zrotation Yrotation Xrotation
						End Site
						{
							OFFSET 0.0000 0.0000 5.5351
						}
					}
				}
			}
		}
		JOINT lfemur   
		{
			OFFSET 8.2817 0.0000 0.0000
			CHANNELS 3 Zrotation Yrotation Xrotation
			JOINT ltibia   
			{
				OFFSET 0.0000 -43.3627 0.0000
				CHANNELS 3 Zrotation Yrotation Xrotation
				JOINT lfoot    
				{
					OFFSET 0.0000 -38.2947 0.0000
					CHANNELS 3 Zrotation Yrotation Xrotation
					JOINT ltoes    
					{
						OFFSET 0.0000 0.0000 16.6054
						CHANNELS 3 Zrotation Yrotation Xrotation
						End Site
						{
							OFFSET 0.0000 0.0000 5.5351
						}
					}
				}
			}
		}
	}
}
MOTION
Frames: 13
Frame Time: .0333333
34.444 86.649 -1.7619 14.3982 66.7799 30.7253 0 -0 0 5.50312 -17.0785 -8.51312 29.1847 -14.1529 -4.49921e-05 47.82 -0.216095 22.6117 2.33997e-05 89.2385 2.31024e-05 1.95903 3.84103 0.0657019 -21.5106 10.3267 -6.25176e-05 -25.4827 -2.97967 4.7286 -180 -79.4085 180 10.1731 2.19928 0.195797 -2.04567 -11.793 -6.90552 10.3123 -8.48256 -34.1191 -0 -0 16.172 7.12821e-06 -5.92635 2.74952 -0.285295 -1.39401e-06 -47.9024 -6.89496 19.7963 0.742389 -0 -0 13.1012 -7.6515e-08 0.0755995 15.153 0.0197995 -2.22997e-07 -66.1432 
35.668 86.367 -1.3846 14.9368 66.0673 31.0544 0 -0 0 5.62433 -17.0792 -8.5249 28.9964 -14.2411 -8.89186e-05 48.6073 -0.792703 21.9474 -3.3934e-06 88.7471 -3.46886e-06 1.92187 3.85744 0.0646999 -21.6035 10.6642 -9.66372e-05 -24.7656 -2.7088 4.02284 -180 -78.803 180 10.4075 2.25504 0.205401 -3.1454 -11.6455 -7.25537 10.797 -8.25977 -33.2773 -0 -0 13.8868 2.55603e-06 -6.18758 3.14865 -0.341207 -2.14974e-06 -45.6907 -7.06746 19.6678 1.33146 -0 -0 13.9411 -1.93441e-07 0.0653998 15.5993 0.0176003 2.75431e-07 -68.112 
36.892 86.073 -1.0096 15.5979 65.3798 31.5508 0 -0 0 5.71574 -17.0794 -8.6309 28.7888 -14.318 3.208e-05 49.416 -1.40668 21.25 -1.33091e-05 88.198 -1.37359e-05 1.87335 3.83858 0.0627973 -21.7622 11.0109 1.57589e-05 -24.0826 -2.4055 3.3537 -180 -78.236 180 10.6233 2.28694 0.212604 -4.24911 -11.4677 -7.5889 11.0378 -7.89459 -32.5066 -0 -0 12.0266 1.22255e-06 -6.65707 3.42888 -0.399901 -3.41231e-06 -42.1196 -7.30576 19.3882 1.79667 -0 -0 14.8954 1.82686e-07 -0.0586006 16.1244 -0.0163005 -4.14386e-07 -70.4267 
38.108 85.775 -0.6358 16.2969 64.7234 32.1529 0 -0 0 5.82562 -17.0623 -8.84841 28.5716 -14.3776 -0.000160826 50.212 -2.04705 20.516 5.87645e-06 87.6253 5.63776e-06 1.79466 3.78116 0.0592017 -22.0161 11.3641 -3.34235e-05 -23.4327 -2.08533 2.72194 -180 -77.7173 180 10.8201 2.27322 0.215303 -5.37045 -11.259 -7.91288 11.0482 -7.3634 -31.8781 -0 -0 10.6993 -4.16055e-07 -7.34065 3.47451 -0.447301 -3.01926e-06 -36.8835 -7.57944 18.9782 2.09459 -0 -0 15.9952 8.97397e-07 -0.364506 16.7451 -0.104999 2.623e-08 -73.0361 
39.305 85.481 -0.2596 16.9528 64.1028 32.8026 0 -0 0 6.00202 -17.0026 -9.18367 28.3525 -14.4087 9.07661e-05 50.9691 -2.70174 19.7443 4.74534e-06 87.0391 4.50661e-06 1.66661 3.68587 0.0535997 -22.3825 11.7168 -3.65721e-05 -22.8283 -1.7591 2.12937 -180 -77.2569 180 11.0024 2.19574 0.211508 -6.51881 -11.0191 -8.2349 10.8638 -6.65997 -31.4508 -0 -0 9.98406 -4.84295e-06 -8.21123 3.16876 -0.457005 -4.08519e-07 -29.6789 -7.8447 18.4792 2.18721 -0 -0 17.2784 6.91193e-07 -0.923498 17.4689 -0.277202 -5.93218e-06 -75.804 
40.477 85.2 0.1239 17.4893 63.5245 33.4285 0 -0 0 6.2812 -16.8821 -9.62336 28.1391 -14.4127 -2.65143e-05 51.6569 -3.3434 18.9507 -0 86.44 -0 1.46502 3.5579 0.0455004 -22.8659 12.0723 -0.000125322 -22.2926 -1.45007 1.58285 -180 -76.875 180 11.1784 2.04566 0.200195 -7.69444 -10.7482 -8.56245 10.5385 -5.813 -31.2616 -0 -0 9.92654 4.75779e-06 -9.2007 2.43969 -0.395093 2.19398e-06 -20.5043 -8.04934 17.9523 2.05596 -0 -0 18.7786 1.42942e-06 -1.79495 18.2965 -0.563705 -1.65676e-06 -78.5186 
41.623 84.938 0.5187 17.8711 62.9933 33.989 0 -0 0 6.67308 -16.6877 -10.1401 27.9378 -14.3802 4.36747e-05 52.2594 -3.95222 18.1422 -2.81774e-06 85.827 -3.03129e-06 1.17303 3.40577 0.0348984 -23.4476 12.4204 2.88173e-05 -21.8664 -1.1615 1.0916 -180 -76.5754 180 11.3555 1.8233 0.181298 -8.88692 -10.4467 -8.89958 10.138 -4.90243 -31.3311 -0 -0 10.5358 7.20809e-06 -10.1976 1.33754 -0.240604 -4.15211e-07 -10.2402 -8.15448 17.4482 1.70497 -0 -0 20.5087 8.78205e-06 -2.99358 19.2287 -0.986697 -3.05581e-06 -80.9237 
42.744 84.696 0.9273 18.0924 62.5083 34.4502 0 -0 0 7.15838 -16.4178 -10.6885 27.7542 -14.3089 -7.98507e-05 52.7723 -4.50429 17.3374 -1.71059e-06 85.1563 -1.86165e-06 0.776889 3.23952 0.0219998 -24.094 12.757 -3.21885e-05 -21.5971 -0.8959 0.668309 -180 -76.3669 180 11.5389 1.53886 0.155504 -10.0727 -10.1153 -9.24593 9.72183 -4.02957 -31.6419 -0 -0 11.7768 4.36396e-08 -11.0804 0.0497 -0.00970008 4.93202e-11 -0.676008 -8.13786 17.0085 1.16468 -0 -0 22.4635 -1.08414e-06 -4.48044 20.2591 -1.55423 -2.67168e-05 -82.7587 
43.846 84.476 1.3527 18.1718 62.0628 34.7945 0 -0 0 7.69701 -16.0795 -11.214 27.5927 -14.1981 7.48946e-05 53.1973 -4.97607 16.5598 -4.85873e-07 84.4543 -1.08543e-06 0.269498 3.06958 0.00719989 -24.755 13.073 -5.6455e-06 -21.5312 -0.649198 0.328109 180 -76.2508 180 11.7292 1.2113 0.124402 -11.2187 -9.75515 -9.59786 9.33681 -3.28203 -32.1398 -0 -0 13.5705 -6.77795e-06 -11.7439 -1.26454 -179.737 3.58866e-07 -6.84721 -7.99 16.6658 0.483565 -0 -0 24.616 -1.2864e-05 -6.16171 21.372 -2.25297 6.32775e-06 -83.8064 
44.936 84.278 1.7985 18.1379 61.6523 35.0067 0 -0 0 8.2371 -15.6895 -11.6611 27.4644 -14.0516 2.31907e-05 53.5387 -5.3418 15.8378 1.44527e-06 83.6792 1.29411e-06 -0.349308 2.9053 -0.00890027 -25.3804 13.3633 -4.53329e-05 -21.7063 -0.415106 0.085402 -180 -76.2212 180 11.9204 0.864809 0.090295 -12.2861 -9.36634 -9.94694 9.01941 -2.73329 -32.7354 -0 -0 15.7925 -1.58576e-05 -12.1092 -2.565 -179.45 -2.20635e-06 -12.1869 -7.71472 16.4372 -0.281993 -0 -0 26.9283 -5.13347e-05 -7.89497 22.5391 -3.04264 2.82858e-05 -83.9319 
46.017 84.101 2.2737 17.9888 61.2792 35.0443 0 -0 0 8.74987 -15.2654 -11.9765 27.377 -13.8648 9.82231e-05 53.8008 -5.58615 15.186 1.28529e-06 82.8406 1.13406e-06 -1.0665 2.75172 -0.0256 -25.931 13.6171 2.55824e-05 -22.1434 -0.176898 -0.0525 -180 -76.2877 180 12.1041 0.525304 0.0556969 -13.2396 -8.94942 -10.2833 8.79851 -2.39134 -33.2959 -0 -0 18.2257 -9.27996e-06 -12.181 -3.83411 -179.173 4.28543e-06 -15.7536 -7.29574 16.345 -1.07461 -0 -0 29.3662 5.90549e-05 -9.51646 23.7091 -3.85625 7.48008e-05 -83.0798 
47.09 83.946 2.7837 17.7396 60.9388 34.9028 0 -0 0 9.20683 -14.8287 -12.1371 27.3406 -13.6451 -3.82711e-05 53.9853 -5.69115 14.6335 0 81.932 0 -1.86421 2.6112 -0.0425001 -26.3784 13.8335 -8.0003e-05 -22.8423 0.0778005 -0.0801988 180 -76.445 180 12.2666 0.217995 0.0233995 -14.0481 -8.50407 -10.5916 8.68687 -2.24804 -33.7183 -0 -0 20.6582 4.24916e-06 -11.99 -5.06495 -178.926 -1.94508e-06 -18.0075 -6.73912 16.3838 -1.86301 -0 -0 31.8976 -3.24986e-05 -10.8417 24.8337 -4.59852 6.90987e-07 -81.2969 
48.151 83.813 3.3332 17.3913 60.6326 34.5778 0 -0 0 9.59437 -14.3967 -12.1424 27.3622 -13.3987 -0.000103182 54.0933 -5.64616 14.2047 -0 80.9365 -0 -2.71539 2.48246 -0.0587993 -26.7114 14.0103 2.84021e-05 -23.7808 0.363898 0.00120123 180 -76.7001 180 12.3908 -0.0346003 -0.00380019 -14.6892 -8.02926 -10.8561 8.68561 -2.26068 -33.9211 -0 -0 22.8938 1.77931e-05 -11.6062 -6.24351 -178.721 -7.73596e-06 -19.3108 -6.05188 16.5375 -2.63798 -0 -0 34.4962 2.13414e-05 -11.701 25.8545 -5.16086 8.49971e-05 -78.7096 
